#!OML:ASF F:\VICON\USERDATA\INSTALL\rory3\rory3.ASF
:FULLY-SPECIFIED
:DEGREES
445
root 0.304526 17.3837 20.5356 -168.046 -37.2022 -177.527
lowerback -10.1335 -0.370307 0.448386
upperback -5.95267 -1.02766 2.61686
thorax -0.464951 -0.691392 2.35906
lowerneck -12.97 -5.90642 -7.90537
upperneck 32.8427 -11.1581 6.02869
head 14.1858 -5.85663 1.78098
rclavicle 2.32578e-014 -2.14687e-014
rhumerus 170.808 -19.9089 -211.309
rradius 14.6169
rwrist 137.051
rhand -25.0871 10.7041
rfingers 7.12502
rthumb 1.42748 -19.2708
lclavicle 2.32578e-014 -2.14687e-014
lhumerus -15.2373 -35.0475 35.4214
lradius 44.8034
lwrist 13.9357
lhand 10.9087 16.0188
lfingers 7.12502
lthumb 35.9877 42.3383
rfemur -47.4525 14.4563 -6.32627
rtibia 21.9574
rfoot -68.1829 6.88996
rtoes 63.5123
lfemur -9.09106 -0.457661 -29.3389
ltibia 10.9877
lfoot -39.3457 32.7116
ltoes 13.4592
446
root 0.293317 17.3889 20.4463 -167.816 -38.0641 -177.931
lowerback -10.053 -0.488631 0.365712
upperback -6.12123 -1.17587 2.4153
thorax -0.681203 -0.767297 2.1861
lowerneck -12.492 -6.0737 -7.76915
upperneck 32.7479 -11.487 5.97152
head 14.0543 -6.01405 1.69527
rclavicle -4.22417e-015 2.94201e-014
rhumerus 172.057 -21.8707 -211.606
rradius 14.5401
rwrist 135.427
rhand -25.3181 8.62432
rfingers 7.12502
rthumb 1.20433 -21.352
lclavicle -4.22417e-015 2.94201e-014
lhumerus -15.7209 -33.6497 35.0713
lradius 42.3687
lwrist 11.3956
lhand 10.4054 16.3997
lfingers 7.12502
lthumb 35.5108 42.8349
rfemur -47.0329 14.3484 -6.88927
rtibia 21.8271
rfoot -68.61 8.68242
rtoes 63.5198
lfemur -8.59961 -0.907508 -29.3895
ltibia 10.7079
lfoot -38.4097 33.1708
ltoes 12.234
447
root 0.287856 17.3943 20.3447 -167.55 -38.9219 -178.457
lowerback -9.96297 -0.64116 0.0619263
upperback -6.35453 -1.35777 2.20076
thorax -0.966125 -0.856298 2.12347
lowerneck -11.9967 -6.20396 -7.7471
upperneck 32.8566 -11.8228 5.99011
head 14.0248 -6.19188 1.65604
rclavicle 4.67889e-014 1.11319e-014
rhumerus 173.645 -25.8632 -212.106
rradius 14.1178
rwrist 131.942
rhand -24.8705 7.12806
rfingers 7.12502
rthumb 1.6366 -22.8454
lclavicle 4.67889e-014 1.11319e-014
lhumerus -16.3363 -32.3889 34.6449
lradius 40.4582
lwrist 8.65828
lhand 9.96475 17.7695
lfingers 7.12502
lthumb 35.0929 44.3038
rfemur -46.5846 14.3878 -7.54369
rtibia 21.7957
rfoot -69.0769 9.93446
rtoes 63.458
lfemur -7.98245 -0.984131 -29.4824
ltibia 10.3085
lfoot -37.4941 32.9452
ltoes 10.9546
448
root 0.28492 17.3947 20.2384 -167.369 -39.6713 -178.767
lowerback -9.96547 -0.746217 -0.100352
upperback -6.50454 -1.4914 2.12119
thorax -1.11518 -0.922717 2.12312
lowerneck -11.6702 -6.36995 -8.05896
upperneck 32.912 -12.1037 6.09048
head 14.0365 -6.35973 1.70989
rclavicle 6.80589e-014 3.33958e-014
rhumerus 174.845 -27.9634 -212.475
rradius 13.8951
rwrist 130.151
rhand -24.3134 5.85385
rfingers 7.12502
rthumb 2.17472 -24.1148
lclavicle 6.80589e-014 3.33958e-014
lhumerus -16.8918 -30.628 34.1908
lradius 38.6398
lwrist 5.26426
lhand 9.5212 18.47
lfingers 7.12502
lthumb 34.6721 45.102
rfemur -46.3749 15.0054 -8.32177
rtibia 21.8883
rfoot -69.8254 11.1747
rtoes 63.4128
lfemur -7.32341 -1.40935 -29.3445
ltibia 9.66343
lfoot -37.0444 32.9381
ltoes 10.2211
449
root 0.280177 17.3982 20.1281 -167.198 -40.3877 -178.884
lowerback -10.1191 -0.892653 -0.115468
upperback -6.60007 -1.69614 2.16718
thorax -1.12213 -1.02849 2.15943
lowerneck -11.5724 -6.43142 -8.39555
upperneck 32.902 -12.1515 6.1856
head 14.0491 -6.41178 1.7993
rclavicle 7.688e-014 8.74653e-015
rhumerus 175.307 -25.9498 -212.587
rradius 14.2592
rwrist 132.604
rhand -23.3312 5.63553
rfingers 7.12502
rthumb 3.12325 -24.3213
lclavicle 7.688e-014 8.74653e-015
lhumerus -17.6 -28.5162 33.721
lradius 36.8925
lwrist 1.46877
lhand 8.82545 18.6672
lfingers 7.12502
lthumb 34.0115 45.4484
rfemur -46.2619 15.5063 -8.78583
rtibia 22.0124
rfoot -70.3517 12.771
rtoes 63.3945
lfemur -6.70893 -1.78673 -29.0456
ltibia 8.88244
lfoot -36.4069 32.869
ltoes 9.69465
